Coordinates
version=1
nRows=8
nColumns=40
inDegrees=yes

Units are S.I. units (second, meters, Newtons, ...)
If the header above contains a line with 'inDegrees', this indicates whether rotational values are in degrees (yes) or radians (no).

endheader
time	pelvis_tilt	pelvis_list	pelvis_rotation	pelvis_tx	pelvis_ty	pelvis_tz	hip_flexion_r	hip_adduction_r	hip_rotation_r	knee_angle_r	knee_angle_r_beta	ankle_angle_r	subtalar_angle_r	mtp_angle_r	hip_flexion_l	hip_adduction_l	hip_rotation_l	knee_angle_l	knee_angle_l_beta	ankle_angle_l	subtalar_angle_l	mtp_angle_l	lumbar_extension	lumbar_bending	lumbar_rotation	arm_flex_r	arm_add_r	arm_rot_r	elbow_flex_r	pro_sup_r	wrist_flex_r	wrist_dev_r	arm_flex_l	arm_add_l	arm_rot_l	elbow_flex_l	pro_sup_l	wrist_flex_l	wrist_dev_l
      0.52000000	     -3.05622301	     -8.44932157	     89.88560872	      0.18603443	      0.90045307	      0.03978001	     38.56098278	     -1.32015726	     -4.42166708	      4.63691745	      0.08092948	      3.49494711	      0.00000000	     -0.00000000	    -13.61553520	      7.30507338	      1.65860964	     -5.22237435	     -0.09114763	      4.39270292	      0.00000000	     -0.00000000	     -0.61679708	     -3.23924203	     -5.15685326	      0.00000000	      0.00000000	     -0.00000000	      0.00000000	      0.00000000	      0.00000000	     -0.00000000	     -0.00000000	     -0.00000000	      0.00000000	      0.00000000	      0.00000000	     -0.00000000	     -0.00000000
      0.53000000	     -3.11684449	     -8.65091418	     89.89491458	      0.18677715	      0.89645643	      0.02084289	     39.08050084	     -1.16612250	     -4.53272506	      4.01887714	      0.07014264	      3.91939489	      0.00000000	      0.00000000	    -14.59572498	      7.26728000	      1.71647651	     -4.93731368	     -0.08617238	      4.71628555	      0.00000000	      0.00000000	     -0.26702800	     -3.26258005	     -5.24789868	      0.00000000	      0.00000000	      0.00000000	      0.00000000	      0.00000000	      0.00000000	      0.00000000	      0.00000000	      0.00000000	      0.00000000	      0.00000000	      0.00000000	      0.00000000	      0.00000000
      0.54000000	     -3.02433810	     -8.73948217	     89.90063446	      0.18770160	      0.89301235	      0.00179027	     39.40272742	     -0.88398636	     -4.61126606	      3.89019081	      0.06789664	      3.98712649	      0.00000000	      0.00000000	    -15.44196361	      7.04743289	      1.52444395	     -4.20426121	     -0.07337820	      4.90588253	      0.00000000	      0.00000000	     -0.05511405	     -3.15043573	     -5.18008788	      0.00000000	      0.00000000	      0.00000000	      0.00000000	      0.00000000	      0.00000000	      0.00000000	      0.00000000	      0.00000000	      0.00000000	      0.00000000	      0.00000000	      0.00000000	      0.00000000
      0.55000000	     -2.87200069	     -8.90957229	     89.90525419	      0.18862544	      0.88990517	     -0.01730513	     39.75827614	     -0.58252216	     -4.79329757	      4.22918306	      0.07381317	      3.80947290	     -0.00000000	      0.00000000	    -15.97181946	      6.74795020	      1.22808742	     -3.09385895	     -0.05399803	      4.78923635	      0.00000000	      0.00000000	      0.25470473	     -2.96161765	     -5.10966155	      0.00000000	     -0.00000000	      0.00000000	      0.00000000	      0.00000000	     -0.00000000	     -0.00000000	     -0.00000000	      0.00000000	     -0.00000000	      0.00000000	      0.00000000	      0.00000000	      0.00000000
      0.56000000	     -2.65201040	     -9.03900337	     89.90775631	      0.18959076	      0.88735201	     -0.03651078	     40.00858748	     -0.25093171	     -5.01873546	      4.98247929	      0.08696067	      3.31876273	      0.00000000	      0.00000000	    -16.28278906	      6.35410059	      0.72189671	     -1.56216066	     -0.02726485	      4.40668522	      0.00000000	      0.00000000	      0.52465195	     -2.69114535	     -4.98664164	      0.00000000	      0.00000000	      0.00000000	      0.00000000	      0.00000000	      0.00000000	      0.00000000	      0.00000000	      0.00000000	      0.00000000	      0.00000000	      0.00000000	      0.00000000	      0.00000000
      0.57000000	     -2.37330126	     -9.12283053	     89.90946229	      0.19059335	      0.88536704	     -0.05585650	     40.15296462	      0.10354551	     -5.30102093	      6.08975063	      0.10628620	      2.55702406	      0.00000000	      0.00000000	    -16.38259893	      5.86179532	      0.08032694	      0.37517517	      0.00654804	      3.66021794	      0.00000000	      0.00000000	      0.74907991	     -2.35728316	     -4.85886522	      0.00000000	      0.00000000	      0.00000000	      0.00000000	      0.00000000	      0.00000000	      0.00000000	      0.00000000	      0.00000000	      0.00000000	      0.00000000	      0.00000000	      0.00000000	      0.00000000
      0.58000000	     -2.06220284	     -9.16211497	     89.90918790	      0.19160407	      0.88398909	     -0.07533117	     40.21053187	      0.44742261	     -5.62854372	      7.51247105	      0.13111735	      1.57444105	      0.00000000	      0.00000000	    -16.20616378	      5.28642642	     -0.78618440	      2.82092898	      0.04923450	      2.53602286	      0.00000000	      0.00000000	      0.93512004	     -1.96937227	     -4.67966258	      0.00000000	      0.00000000	      0.00000000	      0.00000000	      0.00000000	      0.00000000	      0.00000000	      0.00000000	      0.00000000	      0.00000000	      0.00000000	      0.00000000	      0.00000000	      0.00000000
      0.59000000	     -1.76349732	     -9.09228667	     89.90806654	      0.19265825	      0.88329779	     -0.09494153	     40.12719625	      0.74566328	     -5.98848138	      9.19981360	      0.16056704	      0.42431228	      0.00000000	      0.00000000	    -15.87248227	      4.65637264	     -1.64014263	      5.66414148	      0.09885792	      0.88681309	      0.00000000	      0.00000000	      1.00528834	     -1.61646396	     -4.49832531	      0.00000000	      0.00000000	      0.00000000	      0.00000000	      0.00000000	      0.00000000	      0.00000000	      0.00000000	      0.00000000	      0.00000000	      0.00000000	      0.00000000	      0.00000000	      0.00000000
